<mxfile host="65bd71144e">
    <diagram id="tr8WCDj-hul7nBdrf4UF" name="Страница 1">
        <mxGraphModel dx="532" dy="646" grid="1" gridSize="10" guides="1" tooltips="1" connect="0" arrows="1" fold="1" page="1" pageScale="1" pageWidth="827" pageHeight="1169" math="0" shadow="0">
            <root>
                <mxCell id="0"/>
                <mxCell id="1" parent="0"/>
                <mxCell id="2" style="edgeStyle=orthogonalEdgeStyle;rounded=0;orthogonalLoop=1;jettySize=auto;html=1;" parent="1" source="3" edge="1">
                    <mxGeometry relative="1" as="geometry">
                        <mxPoint x="375" y="150" as="targetPoint"/>
                    </mxGeometry>
                </mxCell>
                <mxCell id="3" value="Запуск" style="rounded=1;whiteSpace=wrap;html=1;arcSize=50;" parent="1" vertex="1">
                    <mxGeometry x="305" y="20" width="140" height="40" as="geometry"/>
                </mxCell>
                <mxCell id="5" value="#include &amp;lt;iostream&amp;gt;&lt;br&gt;using namespace std;" style="strokeWidth=2;html=1;shape=mxgraph.flowchart.annotation_2;align=left;labelPosition=right;pointerEvents=1;" parent="1" vertex="1">
                    <mxGeometry x="458.01" y="40" width="20" height="80" as="geometry"/>
                </mxCell>
                <mxCell id="6" value="" style="endArrow=none;dashed=1;html=1;entryX=0;entryY=0.5;entryDx=0;entryDy=0;entryPerimeter=0;" parent="1" target="5" edge="1">
                    <mxGeometry width="50" height="50" relative="1" as="geometry">
                        <mxPoint x="375" y="80" as="sourcePoint"/>
                        <mxPoint x="465" y="70" as="targetPoint"/>
                    </mxGeometry>
                </mxCell>
                <mxCell id="7" value="Конец" style="rounded=1;whiteSpace=wrap;html=1;arcSize=50;" parent="1" vertex="1">
                    <mxGeometry x="305" y="1440" width="140" height="40" as="geometry"/>
                </mxCell>
                <mxCell id="10" value="return 0;&lt;br&gt;}" style="strokeWidth=2;html=1;shape=mxgraph.flowchart.annotation_2;align=left;labelPosition=right;pointerEvents=1;" parent="1" vertex="1">
                    <mxGeometry x="476.75" y="1390" width="20" height="60" as="geometry"/>
                </mxCell>
                <mxCell id="11" value="" style="endArrow=none;dashed=1;html=1;entryX=0;entryY=0.5;entryDx=0;entryDy=0;entryPerimeter=0;" parent="1" edge="1">
                    <mxGeometry width="50" height="50" relative="1" as="geometry">
                        <mxPoint x="376.75" y="1420" as="sourcePoint"/>
                        <mxPoint x="476.75" y="1420" as="targetPoint"/>
                    </mxGeometry>
                </mxCell>
                <mxCell id="383" style="edgeStyle=orthogonalEdgeStyle;html=1;rounded=0;" parent="1" source="354" target="382" edge="1">
                    <mxGeometry relative="1" as="geometry"/>
                </mxCell>
                <mxCell id="354" value="int main() {" style="ellipse;whiteSpace=wrap;html=1;" parent="1" vertex="1">
                    <mxGeometry x="315" y="150" width="120" height="60" as="geometry"/>
                </mxCell>
                <mxCell id="369" style="edgeStyle=orthogonalEdgeStyle;rounded=0;html=1;" parent="1" source="359" edge="1">
                    <mxGeometry relative="1" as="geometry">
                        <mxPoint x="907" y="270" as="targetPoint"/>
                    </mxGeometry>
                </mxCell>
                <mxCell id="359" value="&lt;div&gt;struct Node&lt;/div&gt;" style="ellipse;whiteSpace=wrap;html=1;" parent="1" vertex="1">
                    <mxGeometry x="847" y="180" width="120" height="60" as="geometry"/>
                </mxCell>
                <mxCell id="367" style="edgeStyle=orthogonalEdgeStyle;rounded=0;html=1;" parent="1" target="7" edge="1">
                    <mxGeometry relative="1" as="geometry">
                        <mxPoint x="374.985" y="1370" as="sourcePoint"/>
                    </mxGeometry>
                </mxCell>
                <mxCell id="386" style="edgeStyle=orthogonalEdgeStyle;rounded=0;html=1;" parent="1" source="382" target="384" edge="1">
                    <mxGeometry relative="1" as="geometry"/>
                </mxCell>
                <mxCell id="382" value="setlocale(LC_ALL, &quot;Russian&quot;);" style="rounded=0;whiteSpace=wrap;html=1;" parent="1" vertex="1">
                    <mxGeometry x="300" y="250" width="150" height="40" as="geometry"/>
                </mxCell>
                <mxCell id="387" style="edgeStyle=orthogonalEdgeStyle;rounded=0;html=1;" parent="1" source="384" target="385" edge="1">
                    <mxGeometry relative="1" as="geometry"/>
                </mxCell>
                <mxCell id="384" value="List list;" style="rounded=0;whiteSpace=wrap;html=1;" parent="1" vertex="1">
                    <mxGeometry x="300" y="310" width="150" height="40" as="geometry"/>
                </mxCell>
                <mxCell id="477" value="" style="edgeStyle=none;html=1;" edge="1" parent="1" source="385" target="476">
                    <mxGeometry relative="1" as="geometry"/>
                </mxCell>
                <mxCell id="385" value="int n;" style="rounded=0;whiteSpace=wrap;html=1;" parent="1" vertex="1">
                    <mxGeometry x="300" y="370" width="150" height="40" as="geometry"/>
                </mxCell>
                <mxCell id="396" value="1" style="edgeStyle=orthogonalEdgeStyle;rounded=0;html=1;" parent="1" source="388" target="479" edge="1">
                    <mxGeometry relative="1" as="geometry"/>
                </mxCell>
                <mxCell id="400" value="0" style="edgeStyle=orthogonalEdgeStyle;rounded=0;html=1;" parent="1" source="388" target="398" edge="1">
                    <mxGeometry x="-0.9077" relative="1" as="geometry">
                        <Array as="points">
                            <mxPoint x="490" y="675"/>
                            <mxPoint x="490" y="930"/>
                            <mxPoint x="375" y="930"/>
                        </Array>
                        <mxPoint as="offset"/>
                    </mxGeometry>
                </mxCell>
                <mxCell id="388" value="for (int i = 1; i &amp;lt;= n; i++)" style="shape=hexagon;perimeter=hexagonPerimeter2;whiteSpace=wrap;html=1;fixedSize=1;" parent="1" vertex="1">
                    <mxGeometry x="294.98" y="650" width="160" height="50" as="geometry"/>
                </mxCell>
                <mxCell id="393" style="edgeStyle=orthogonalEdgeStyle;rounded=0;html=1;" parent="1" source="390" target="392" edge="1">
                    <mxGeometry relative="1" as="geometry"/>
                </mxCell>
                <mxCell id="390" value="cout &amp;lt;&amp;lt; &quot;Введите размер списка: &quot;;" style="shape=parallelogram;perimeter=parallelogramPerimeter;whiteSpace=wrap;html=1;fixedSize=1;" parent="1" vertex="1">
                    <mxGeometry x="188.35999999999999" y="530" width="373.25" height="40" as="geometry"/>
                </mxCell>
                <mxCell id="394" style="edgeStyle=orthogonalEdgeStyle;rounded=0;html=1;" parent="1" source="392" target="388" edge="1">
                    <mxGeometry relative="1" as="geometry"/>
                </mxCell>
                <mxCell id="392" value="cin &amp;gt;&amp;gt; n;" style="shape=parallelogram;perimeter=parallelogramPerimeter;whiteSpace=wrap;html=1;fixedSize=1;" parent="1" vertex="1">
                    <mxGeometry x="188.35999999999999" y="590" width="373.25" height="40" as="geometry"/>
                </mxCell>
                <mxCell id="397" style="edgeStyle=orthogonalEdgeStyle;rounded=0;html=1;entryX=0;entryY=0.5;entryDx=0;entryDy=0;entryPerimeter=0;" parent="1" source="395" target="388" edge="1">
                    <mxGeometry relative="1" as="geometry">
                        <Array as="points">
                            <mxPoint x="375" y="920"/>
                            <mxPoint x="270" y="920"/>
                            <mxPoint x="270" y="675"/>
                        </Array>
                    </mxGeometry>
                </mxCell>
                <mxCell id="395" value="StartList(list, tmp);" style="shape=process;whiteSpace=wrap;html=1;backgroundOutline=1;" parent="1" vertex="1">
                    <mxGeometry x="315" y="830" width="120" height="60" as="geometry"/>
                </mxCell>
                <mxCell id="403" style="edgeStyle=orthogonalEdgeStyle;rounded=0;html=1;" parent="1" source="398" target="401" edge="1">
                    <mxGeometry relative="1" as="geometry"/>
                </mxCell>
                <mxCell id="398" value="cout &amp;lt;&amp;lt; &quot;Изначальный список&quot; &amp;lt;&amp;lt; endl;" style="shape=parallelogram;perimeter=parallelogramPerimeter;whiteSpace=wrap;html=1;fixedSize=1;" parent="1" vertex="1">
                    <mxGeometry x="188.36" y="950" width="373.25" height="40" as="geometry"/>
                </mxCell>
                <mxCell id="482" style="edgeStyle=none;html=1;" edge="1" parent="1" source="401" target="405">
                    <mxGeometry relative="1" as="geometry"/>
                </mxCell>
                <mxCell id="401" value="printList(list);" style="shape=process;whiteSpace=wrap;html=1;backgroundOutline=1;" parent="1" vertex="1">
                    <mxGeometry x="314.98" y="1020" width="120" height="60" as="geometry"/>
                </mxCell>
                <mxCell id="485" style="edgeStyle=none;html=1;" edge="1" parent="1" source="402" target="407">
                    <mxGeometry relative="1" as="geometry"/>
                </mxCell>
                <mxCell id="402" value="addList(list);" style="shape=process;whiteSpace=wrap;html=1;backgroundOutline=1;" parent="1" vertex="1">
                    <mxGeometry x="314.98" y="1160" width="120" height="60" as="geometry"/>
                </mxCell>
                <mxCell id="483" value="" style="edgeStyle=none;html=1;" edge="1" parent="1" source="405" target="402">
                    <mxGeometry relative="1" as="geometry"/>
                </mxCell>
                <mxCell id="405" value="cout &amp;lt;&amp;lt; endl;" style="shape=parallelogram;perimeter=parallelogramPerimeter;whiteSpace=wrap;html=1;fixedSize=1;" parent="1" vertex="1">
                    <mxGeometry x="188.36" y="1100" width="373.25" height="40" as="geometry"/>
                </mxCell>
                <mxCell id="411" style="edgeStyle=orthogonalEdgeStyle;rounded=0;html=1;" parent="1" source="407" target="410" edge="1">
                    <mxGeometry relative="1" as="geometry"/>
                </mxCell>
                <mxCell id="407" value="cout &amp;lt;&amp;lt; &quot;Финальный список&quot; &amp;lt;&amp;lt; endl;" style="shape=parallelogram;perimeter=parallelogramPerimeter;whiteSpace=wrap;html=1;fixedSize=1;" parent="1" vertex="1">
                    <mxGeometry x="188.36" y="1250" width="373.25" height="40" as="geometry"/>
                </mxCell>
                <mxCell id="410" value="printList(list);" style="shape=process;whiteSpace=wrap;html=1;backgroundOutline=1;" parent="1" vertex="1">
                    <mxGeometry x="314.98" y="1310" width="120" height="60" as="geometry"/>
                </mxCell>
                <mxCell id="414" style="edgeStyle=orthogonalEdgeStyle;rounded=0;html=1;" parent="1" source="412" target="413" edge="1">
                    <mxGeometry relative="1" as="geometry"/>
                </mxCell>
                <mxCell id="412" value="char data;" style="rounded=0;whiteSpace=wrap;html=1;" parent="1" vertex="1">
                    <mxGeometry x="832" y="270" width="150" height="40" as="geometry"/>
                </mxCell>
                <mxCell id="487" value="" style="edgeStyle=none;html=1;" edge="1" parent="1" source="413" target="486">
                    <mxGeometry relative="1" as="geometry"/>
                </mxCell>
                <mxCell id="413" value="Node* ptr_next = nullptr;" style="rounded=0;whiteSpace=wrap;html=1;" parent="1" vertex="1">
                    <mxGeometry x="832" y="330" width="150" height="40" as="geometry"/>
                </mxCell>
                <mxCell id="415" style="edgeStyle=orthogonalEdgeStyle;rounded=0;html=1;" parent="1" source="416" edge="1">
                    <mxGeometry relative="1" as="geometry">
                        <mxPoint x="1115" y="270" as="targetPoint"/>
                    </mxGeometry>
                </mxCell>
                <mxCell id="416" value="&lt;div&gt;struct List&lt;/div&gt;" style="ellipse;whiteSpace=wrap;html=1;" parent="1" vertex="1">
                    <mxGeometry x="1055" y="180" width="120" height="60" as="geometry"/>
                </mxCell>
                <mxCell id="417" style="edgeStyle=orthogonalEdgeStyle;rounded=0;html=1;" parent="1" source="418" target="419" edge="1">
                    <mxGeometry relative="1" as="geometry"/>
                </mxCell>
                <mxCell id="418" value="Node* headnode = nullptr;" style="rounded=0;whiteSpace=wrap;html=1;" parent="1" vertex="1">
                    <mxGeometry x="1040" y="270" width="150" height="40" as="geometry"/>
                </mxCell>
                <mxCell id="419" value="Node* tailnode = nullptr;" style="rounded=0;whiteSpace=wrap;html=1;" parent="1" vertex="1">
                    <mxGeometry x="1040" y="330" width="150" height="40" as="geometry"/>
                </mxCell>
                <mxCell id="422" style="edgeStyle=orthogonalEdgeStyle;rounded=0;html=1;" parent="1" source="420" target="421" edge="1">
                    <mxGeometry relative="1" as="geometry"/>
                </mxCell>
                <mxCell id="420" value="&lt;div&gt;void StartList(List&amp;amp; list, char&amp;amp; data)&lt;/div&gt;" style="ellipse;whiteSpace=wrap;html=1;" parent="1" vertex="1">
                    <mxGeometry x="1450" y="180" width="120" height="60" as="geometry"/>
                </mxCell>
                <mxCell id="424" style="edgeStyle=orthogonalEdgeStyle;rounded=0;html=1;" parent="1" source="421" target="423" edge="1">
                    <mxGeometry relative="1" as="geometry"/>
                </mxCell>
                <mxCell id="421" value="Node* newnode = new Node;" style="rounded=0;whiteSpace=wrap;html=1;" parent="1" vertex="1">
                    <mxGeometry x="1435" y="260" width="150" height="40" as="geometry"/>
                </mxCell>
                <mxCell id="426" style="edgeStyle=orthogonalEdgeStyle;rounded=0;html=1;" parent="1" source="423" target="425" edge="1">
                    <mxGeometry relative="1" as="geometry"/>
                </mxCell>
                <mxCell id="423" value="newnode-&amp;gt;data = data;" style="rounded=0;whiteSpace=wrap;html=1;" parent="1" vertex="1">
                    <mxGeometry x="1435" y="320" width="150" height="40" as="geometry"/>
                </mxCell>
                <mxCell id="431" value="1" style="edgeStyle=orthogonalEdgeStyle;rounded=0;html=1;" parent="1" source="425" target="427" edge="1">
                    <mxGeometry relative="1" as="geometry">
                        <Array as="points">
                            <mxPoint x="1345" y="425"/>
                        </Array>
                    </mxGeometry>
                </mxCell>
                <mxCell id="432" value="0" style="edgeStyle=orthogonalEdgeStyle;rounded=0;html=1;" parent="1" source="425" edge="1">
                    <mxGeometry relative="1" as="geometry">
                        <mxPoint x="1510" y="660" as="targetPoint"/>
                        <Array as="points">
                            <mxPoint x="1685" y="425"/>
                        </Array>
                    </mxGeometry>
                </mxCell>
                <mxCell id="425" value="if (list.headnode == nullptr)" style="rhombus;whiteSpace=wrap;html=1;" parent="1" vertex="1">
                    <mxGeometry x="1420" y="390" width="180" height="70" as="geometry"/>
                </mxCell>
                <mxCell id="433" value="" style="edgeStyle=orthogonalEdgeStyle;rounded=0;html=1;" parent="1" source="427" target="428" edge="1">
                    <mxGeometry relative="1" as="geometry"/>
                </mxCell>
                <mxCell id="427" value="list.headnode = newnode;" style="rounded=0;whiteSpace=wrap;html=1;" parent="1" vertex="1">
                    <mxGeometry x="1270" y="450" width="150" height="40" as="geometry"/>
                </mxCell>
                <mxCell id="489" style="edgeStyle=none;html=1;" edge="1" parent="1" source="428" target="488">
                    <mxGeometry relative="1" as="geometry"/>
                </mxCell>
                <mxCell id="428" value="list.tailnode = newnode;" style="rounded=0;whiteSpace=wrap;html=1;" parent="1" vertex="1">
                    <mxGeometry x="1270" y="510" width="150" height="40" as="geometry"/>
                </mxCell>
                <mxCell id="436" value="Конец" style="ellipse;whiteSpace=wrap;html=1;" parent="1" vertex="1">
                    <mxGeometry x="1450" y="1200" width="120" height="60" as="geometry"/>
                </mxCell>
                <mxCell id="442" style="edgeStyle=orthogonalEdgeStyle;rounded=0;html=1;" parent="1" source="440" edge="1">
                    <mxGeometry relative="1" as="geometry">
                        <mxPoint x="1995" y="275" as="targetPoint"/>
                    </mxGeometry>
                </mxCell>
                <mxCell id="440" value="&lt;div&gt;void printList(List&amp;amp; list)&lt;/div&gt;" style="ellipse;whiteSpace=wrap;html=1;" parent="1" vertex="1">
                    <mxGeometry x="1935" y="185" width="120" height="60" as="geometry"/>
                </mxCell>
                <mxCell id="445" style="edgeStyle=orthogonalEdgeStyle;rounded=0;html=1;" parent="1" source="443" target="444" edge="1">
                    <mxGeometry relative="1" as="geometry"/>
                </mxCell>
                <mxCell id="443" value="Node* currentnode = list.headnode;" style="rounded=0;whiteSpace=wrap;html=1;" parent="1" vertex="1">
                    <mxGeometry x="1920" y="275" width="150" height="40" as="geometry"/>
                </mxCell>
                <mxCell id="447" value="1" style="edgeStyle=orthogonalEdgeStyle;rounded=0;html=1;" parent="1" source="444" target="446" edge="1">
                    <mxGeometry relative="1" as="geometry"/>
                </mxCell>
                <mxCell id="452" value="0" style="edgeStyle=orthogonalEdgeStyle;rounded=0;html=1;" parent="1" source="444" target="451" edge="1">
                    <mxGeometry x="-0.92" relative="1" as="geometry">
                        <Array as="points">
                            <mxPoint x="2150" y="385"/>
                            <mxPoint x="2150" y="630"/>
                            <mxPoint x="1995" y="630"/>
                        </Array>
                        <mxPoint as="offset"/>
                    </mxGeometry>
                </mxCell>
                <mxCell id="444" value="while (currentnode != nullptr)" style="rhombus;whiteSpace=wrap;html=1;" parent="1" vertex="1">
                    <mxGeometry x="1900" y="345" width="190" height="80" as="geometry"/>
                </mxCell>
                <mxCell id="449" style="edgeStyle=orthogonalEdgeStyle;rounded=0;html=1;" parent="1" source="446" target="448" edge="1">
                    <mxGeometry relative="1" as="geometry"/>
                </mxCell>
                <mxCell id="446" value="cout &amp;lt;&amp;lt; currentnode-&amp;gt;data &amp;lt;&amp;lt; &quot; &quot;;" style="shape=parallelogram;perimeter=parallelogramPerimeter;whiteSpace=wrap;html=1;fixedSize=1;" parent="1" vertex="1">
                    <mxGeometry x="1875" y="460" width="240" height="40" as="geometry"/>
                </mxCell>
                <mxCell id="450" style="edgeStyle=orthogonalEdgeStyle;rounded=0;html=1;entryX=-0.005;entryY=0.525;entryDx=0;entryDy=0;entryPerimeter=0;" parent="1" source="448" target="444" edge="1">
                    <mxGeometry relative="1" as="geometry">
                        <Array as="points">
                            <mxPoint x="1995" y="600"/>
                            <mxPoint x="1840" y="600"/>
                            <mxPoint x="1840" y="387"/>
                        </Array>
                    </mxGeometry>
                </mxCell>
                <mxCell id="448" value="currentnode = currentnode-&amp;gt;ptr_next;" style="rounded=0;whiteSpace=wrap;html=1;" parent="1" vertex="1">
                    <mxGeometry x="1920" y="530" width="150" height="40" as="geometry"/>
                </mxCell>
                <mxCell id="451" value="&lt;div&gt;Конец&lt;/div&gt;" style="ellipse;whiteSpace=wrap;html=1;" parent="1" vertex="1">
                    <mxGeometry x="1935" y="670" width="120" height="60" as="geometry"/>
                </mxCell>
                <mxCell id="456" style="edgeStyle=orthogonalEdgeStyle;rounded=0;html=1;" parent="1" source="453" target="454" edge="1">
                    <mxGeometry relative="1" as="geometry"/>
                </mxCell>
                <mxCell id="453" value="&lt;div&gt;void addList(List&amp;amp; list)&lt;/div&gt;" style="ellipse;whiteSpace=wrap;html=1;" parent="1" vertex="1">
                    <mxGeometry x="2481" y="200" width="120" height="60" as="geometry"/>
                </mxCell>
                <mxCell id="457" style="edgeStyle=orthogonalEdgeStyle;rounded=0;html=1;" parent="1" source="454" target="455" edge="1">
                    <mxGeometry relative="1" as="geometry"/>
                </mxCell>
                <mxCell id="454" value="Node* newnode = new Node;" style="rounded=0;whiteSpace=wrap;html=1;" parent="1" vertex="1">
                    <mxGeometry x="2466" y="290" width="150" height="40" as="geometry"/>
                </mxCell>
                <mxCell id="459" value="" style="edgeStyle=orthogonalEdgeStyle;rounded=0;html=1;" parent="1" source="455" target="458" edge="1">
                    <mxGeometry relative="1" as="geometry"/>
                </mxCell>
                <mxCell id="455" value="char data;" style="rounded=0;whiteSpace=wrap;html=1;" parent="1" vertex="1">
                    <mxGeometry x="2466" y="350" width="150" height="40" as="geometry"/>
                </mxCell>
                <mxCell id="458" value="int count = 1;" style="rounded=0;whiteSpace=wrap;html=1;" parent="1" vertex="1">
                    <mxGeometry x="2466" y="410" width="150" height="40" as="geometry"/>
                </mxCell>
                <mxCell id="474" value="&lt;div&gt;Конец&lt;/div&gt;" style="ellipse;whiteSpace=wrap;html=1;" parent="1" vertex="1">
                    <mxGeometry x="2481" y="1130" width="120" height="60" as="geometry"/>
                </mxCell>
                <mxCell id="478" value="" style="edgeStyle=none;html=1;" edge="1" parent="1" source="476" target="390">
                    <mxGeometry relative="1" as="geometry"/>
                </mxCell>
                <mxCell id="476" value="char tmp;" style="rounded=0;whiteSpace=wrap;html=1;" vertex="1" parent="1">
                    <mxGeometry x="300" y="430" width="150" height="40" as="geometry"/>
                </mxCell>
                <mxCell id="480" value="" style="edgeStyle=none;html=1;" edge="1" parent="1" source="479" target="395">
                    <mxGeometry relative="1" as="geometry"/>
                </mxCell>
                <mxCell id="479" value="cin &amp;gt;&amp;gt; tmp;" style="shape=parallelogram;perimeter=parallelogramPerimeter;whiteSpace=wrap;html=1;fixedSize=1;" vertex="1" parent="1">
                    <mxGeometry x="289.18" y="760" width="171.64" height="30" as="geometry"/>
                </mxCell>
                <mxCell id="486" value="Node* ptr_next = nullptr;" style="rounded=0;whiteSpace=wrap;html=1;" vertex="1" parent="1">
                    <mxGeometry x="832" y="390" width="150" height="40" as="geometry"/>
                </mxCell>
                <mxCell id="490" style="edgeStyle=orthogonalEdgeStyle;html=1;rounded=0;" edge="1" parent="1" source="488">
                    <mxGeometry relative="1" as="geometry">
                        <mxPoint x="1510" y="660" as="targetPoint"/>
                        <Array as="points">
                            <mxPoint x="1345" y="660"/>
                        </Array>
                    </mxGeometry>
                </mxCell>
                <mxCell id="488" value="return;" style="rounded=0;whiteSpace=wrap;html=1;" vertex="1" parent="1">
                    <mxGeometry x="1270" y="570" width="150" height="40" as="geometry"/>
                </mxCell>
                <mxCell id="494" style="edgeStyle=orthogonalEdgeStyle;rounded=0;html=1;" edge="1" parent="1" source="491" target="493">
                    <mxGeometry relative="1" as="geometry"/>
                </mxCell>
                <mxCell id="491" value="Node* currentnode = list.headnode;" style="rounded=0;whiteSpace=wrap;html=1;" vertex="1" parent="1">
                    <mxGeometry x="1435" y="700" width="150" height="40" as="geometry"/>
                </mxCell>
                <mxCell id="492" value="" style="endArrow=classic;html=1;rounded=0;" edge="1" parent="1" target="491">
                    <mxGeometry width="50" height="50" relative="1" as="geometry">
                        <mxPoint x="1510" y="660" as="sourcePoint"/>
                        <mxPoint x="1450" y="710" as="targetPoint"/>
                    </mxGeometry>
                </mxCell>
                <mxCell id="496" style="edgeStyle=orthogonalEdgeStyle;rounded=0;html=1;" edge="1" parent="1" source="493" target="495">
                    <mxGeometry relative="1" as="geometry"/>
                </mxCell>
                <mxCell id="493" value="newnode-&amp;gt;ptr_prev = currentnode;" style="rounded=0;whiteSpace=wrap;html=1;" vertex="1" parent="1">
                    <mxGeometry x="1435" y="760" width="150" height="40" as="geometry"/>
                </mxCell>
                <mxCell id="498" value="1" style="edgeStyle=orthogonalEdgeStyle;rounded=0;html=1;" edge="1" parent="1" source="495" target="497">
                    <mxGeometry relative="1" as="geometry">
                        <Array as="points">
                            <mxPoint x="1305" y="860"/>
                        </Array>
                    </mxGeometry>
                </mxCell>
                <mxCell id="502" value="0" style="edgeStyle=orthogonalEdgeStyle;rounded=0;html=1;" edge="1" parent="1" source="495">
                    <mxGeometry x="-0.814" relative="1" as="geometry">
                        <mxPoint x="1510" y="1040" as="targetPoint"/>
                        <Array as="points">
                            <mxPoint x="1700" y="860"/>
                            <mxPoint x="1700" y="1040"/>
                        </Array>
                        <mxPoint as="offset"/>
                    </mxGeometry>
                </mxCell>
                <mxCell id="495" value="if (currentnode-&amp;gt;ptr_next != nullptr)" style="rhombus;whiteSpace=wrap;html=1;" vertex="1" parent="1">
                    <mxGeometry x="1380" y="830" width="260" height="60" as="geometry"/>
                </mxCell>
                <mxCell id="500" value="" style="edgeStyle=orthogonalEdgeStyle;rounded=0;html=1;" edge="1" parent="1" source="497" target="499">
                    <mxGeometry relative="1" as="geometry"/>
                </mxCell>
                <mxCell id="497" value="newnode-&amp;gt;ptr_next = currentnode-&amp;gt;ptr_next;" style="rounded=0;whiteSpace=wrap;html=1;" vertex="1" parent="1">
                    <mxGeometry x="1230" y="910" width="150" height="40" as="geometry"/>
                </mxCell>
                <mxCell id="501" style="edgeStyle=orthogonalEdgeStyle;rounded=0;html=1;" edge="1" parent="1" source="499">
                    <mxGeometry relative="1" as="geometry">
                        <mxPoint x="1510" y="1040" as="targetPoint"/>
                        <Array as="points">
                            <mxPoint x="1305" y="1040"/>
                        </Array>
                    </mxGeometry>
                </mxCell>
                <mxCell id="499" value="currentnode-&amp;gt;ptr_next-&amp;gt;ptr_prev = newnode;" style="rounded=0;whiteSpace=wrap;html=1;" vertex="1" parent="1">
                    <mxGeometry x="1230" y="970" width="150" height="40" as="geometry"/>
                </mxCell>
                <mxCell id="506" style="edgeStyle=orthogonalEdgeStyle;rounded=0;html=1;" edge="1" parent="1" source="503" target="505">
                    <mxGeometry relative="1" as="geometry"/>
                </mxCell>
                <mxCell id="503" value="currentnode-&amp;gt;ptr_next = newnode;" style="rounded=0;whiteSpace=wrap;html=1;" vertex="1" parent="1">
                    <mxGeometry x="1435" y="1070" width="150" height="40" as="geometry"/>
                </mxCell>
                <mxCell id="504" value="" style="endArrow=classic;html=1;rounded=0;" edge="1" parent="1" target="503">
                    <mxGeometry width="50" height="50" relative="1" as="geometry">
                        <mxPoint x="1510" y="1040" as="sourcePoint"/>
                        <mxPoint x="1520" y="960" as="targetPoint"/>
                    </mxGeometry>
                </mxCell>
                <mxCell id="507" value="" style="edgeStyle=orthogonalEdgeStyle;rounded=0;html=1;" edge="1" parent="1" source="505" target="436">
                    <mxGeometry relative="1" as="geometry"/>
                </mxCell>
                <mxCell id="505" value="list.tailnode = newnode;" style="rounded=0;whiteSpace=wrap;html=1;" vertex="1" parent="1">
                    <mxGeometry x="1435" y="1140" width="150" height="40" as="geometry"/>
                </mxCell>
                <mxCell id="510" style="edgeStyle=orthogonalEdgeStyle;rounded=0;html=1;" edge="1" parent="1" source="508" target="509">
                    <mxGeometry relative="1" as="geometry"/>
                </mxCell>
                <mxCell id="508" value="Node* currentnode = list.headnode;" style="rounded=0;whiteSpace=wrap;html=1;" vertex="1" parent="1">
                    <mxGeometry x="2466" y="470" width="150" height="40" as="geometry"/>
                </mxCell>
                <mxCell id="512" value="1" style="edgeStyle=orthogonalEdgeStyle;rounded=0;html=1;" edge="1" parent="1" source="509" target="511">
                    <mxGeometry relative="1" as="geometry"/>
                </mxCell>
                <mxCell id="526" value="0" style="edgeStyle=orthogonalEdgeStyle;rounded=0;html=1;" edge="1" parent="1" source="509" target="474">
                    <mxGeometry x="-0.9247" relative="1" as="geometry">
                        <Array as="points">
                            <mxPoint x="2760" y="570"/>
                            <mxPoint x="2760" y="1100"/>
                            <mxPoint x="2541" y="1100"/>
                        </Array>
                        <mxPoint as="offset"/>
                    </mxGeometry>
                </mxCell>
                <mxCell id="509" value="while (currentnode != nullptr)" style="rhombus;whiteSpace=wrap;html=1;" vertex="1" parent="1">
                    <mxGeometry x="2446" y="530" width="190" height="80" as="geometry"/>
                </mxCell>
                <mxCell id="514" value="1" style="edgeStyle=orthogonalEdgeStyle;rounded=0;html=1;" edge="1" parent="1" source="511" target="513">
                    <mxGeometry relative="1" as="geometry">
                        <Array as="points">
                            <mxPoint x="2380" y="690"/>
                            <mxPoint x="2380" y="740"/>
                        </Array>
                    </mxGeometry>
                </mxCell>
                <mxCell id="520" value="0" style="edgeStyle=orthogonalEdgeStyle;rounded=0;html=1;" edge="1" parent="1" source="511">
                    <mxGeometry x="-0.8392" relative="1" as="geometry">
                        <mxPoint x="2541" y="930" as="targetPoint"/>
                        <Array as="points">
                            <mxPoint x="2700" y="690"/>
                            <mxPoint x="2700" y="930"/>
                        </Array>
                        <mxPoint as="offset"/>
                    </mxGeometry>
                </mxCell>
                <mxCell id="511" value="if (count % 2 != 0)" style="rhombus;whiteSpace=wrap;html=1;" vertex="1" parent="1">
                    <mxGeometry x="2446" y="650" width="190" height="80" as="geometry"/>
                </mxCell>
                <mxCell id="516" style="edgeStyle=orthogonalEdgeStyle;rounded=0;html=1;" edge="1" parent="1" source="513" target="515">
                    <mxGeometry relative="1" as="geometry"/>
                </mxCell>
                <mxCell id="513" value="cin &amp;gt;&amp;gt; data;" style="shape=parallelogram;perimeter=parallelogramPerimeter;whiteSpace=wrap;html=1;fixedSize=1;" vertex="1" parent="1">
                    <mxGeometry x="2310" y="730" width="120" height="40" as="geometry"/>
                </mxCell>
                <mxCell id="518" style="edgeStyle=orthogonalEdgeStyle;rounded=0;html=1;" edge="1" parent="1" source="515" target="517">
                    <mxGeometry relative="1" as="geometry"/>
                </mxCell>
                <mxCell id="515" value="newnode-&amp;gt;data = data;" style="rounded=0;whiteSpace=wrap;html=1;" vertex="1" parent="1">
                    <mxGeometry x="2295" y="800" width="150" height="40" as="geometry"/>
                </mxCell>
                <mxCell id="519" style="edgeStyle=orthogonalEdgeStyle;rounded=0;html=1;" edge="1" parent="1" source="517">
                    <mxGeometry relative="1" as="geometry">
                        <mxPoint x="2540" y="930" as="targetPoint"/>
                        <Array as="points">
                            <mxPoint x="2370" y="930"/>
                        </Array>
                    </mxGeometry>
                </mxCell>
                <mxCell id="517" value="currentnode-&amp;gt;data = newnode-&amp;gt;data;" style="rounded=0;whiteSpace=wrap;html=1;" vertex="1" parent="1">
                    <mxGeometry x="2295" y="860" width="150" height="40" as="geometry"/>
                </mxCell>
                <mxCell id="521" value="" style="edgeStyle=orthogonalEdgeStyle;rounded=0;html=1;" edge="1" parent="1" source="522" target="523">
                    <mxGeometry relative="1" as="geometry"/>
                </mxCell>
                <mxCell id="522" value="currentnode = currentnode-&amp;gt;ptr_next;" style="rounded=0;whiteSpace=wrap;html=1;" vertex="1" parent="1">
                    <mxGeometry x="2466" y="960" width="150" height="40" as="geometry"/>
                </mxCell>
                <mxCell id="525" style="edgeStyle=orthogonalEdgeStyle;rounded=0;html=1;entryX=-0.005;entryY=0.5;entryDx=0;entryDy=0;entryPerimeter=0;" edge="1" parent="1" source="523" target="509">
                    <mxGeometry relative="1" as="geometry">
                        <Array as="points">
                            <mxPoint x="2541" y="1080"/>
                            <mxPoint x="2270" y="1080"/>
                            <mxPoint x="2270" y="570"/>
                        </Array>
                    </mxGeometry>
                </mxCell>
                <mxCell id="523" value="count++;" style="rounded=0;whiteSpace=wrap;html=1;" vertex="1" parent="1">
                    <mxGeometry x="2466" y="1020" width="150" height="40" as="geometry"/>
                </mxCell>
                <mxCell id="524" value="" style="endArrow=classic;html=1;rounded=0;" edge="1" parent="1">
                    <mxGeometry width="50" height="50" relative="1" as="geometry">
                        <mxPoint x="2540" y="930" as="sourcePoint"/>
                        <mxPoint x="2540" y="960" as="targetPoint"/>
                    </mxGeometry>
                </mxCell>
            </root>
        </mxGraphModel>
    </diagram>
</mxfile>